<svg xmlns="http://www.w3.org/2000/svg" width="461" height="585" viewBox="0 0 461 585"><clipPath id="a"><path d="M0 0h461.149v584.506H0z"/></clipPath><g clip-path="url(#a)"><path fill="#3a465b" d="M202.344 202.17c-8.092-20.31-13.136-35.934-3.754-57.776a60.1 60.1 0 0 1 32.83-31.75c32.173-12.675 68.088 3.296 79.811 35.644 11.162 30.795-4.141 53.833-19.103 79.109 6.764-.01 13.72-.111 20.462-.025-.025-5.642.082-12.029-.148-17.602q17.409-.151 34.817-.044c-.008 9.502-.193 19.663.158 29.11 10.568-.02 22.97.16 33.452-.337l-.308 56.45c3.838-.07 4.07-.372 6.56 1.904l.044 1.02c-3.107 1.638-73.824.83-81.876.838l-171.323.371c-3.028.02-6.957.505-9.129-1.643l.132-1.1c2.34-1.666 2.428-1.133 5.665-1.177-.32-18.582-.135-37.671-.17-56.292q17.782.061 35.565-.121a3537 3537 0 0 0-.212-36.85q18.264 0 36.527.27m5.553 39.447 17.286.105c-4.606-8.34-12.136-19.583-17.334-28.088.046 8.633.42 19.531.048 27.983m58.695-72.99c6.52-.373 15.194-.174 21.88-.22l2.039-.4c-.33-20.826-16.828-36.468-37.6-35.757a36.53 36.53 0 0 0-25.605 11.725 35.76 35.76 0 0 0-9.572 26.301c.712 14.585 10.297 29.098 24.622 33.352a2896 2896 0 0 1-.319-35.24l20.967.15c-.057-3.556-.845-17.66 1.838-19.648 2.27 3.827 1.753 14.99 1.75 19.738"/><path fill="#38476e" d="M202.344 202.17c-8.092-20.31-13.136-35.934-3.754-57.776a60.1 60.1 0 0 1 32.83-31.75c32.173-12.675 68.088 3.296 79.811 35.644 11.162 30.795-4.141 53.833-19.103 79.109-1.4 1.993-2.798 3.826-3.878 6.008-5.821 9.59-11.455 17.469-18.133 26.487-4.369 5.712-10.505 14.012-15.788 18.831-4.622-3.974-7.075-7.002-10.99-11.622-.42-.636-4.358-5.078-5.067-5.901l-.906.08-.395 1.19-.656.182.204-.571c-1.232-1.346-1.397-4.713-1.684-6.712-2.81-4.3-6.627-9.388-9.652-13.647-4.606-8.34-12.136-19.583-17.334-28.088-1.664-3.728-3.716-7.755-5.505-11.465m64.248-33.542c6.52-.374 15.194-.175 21.88-.22l2.039-.402c-.33-20.825-16.828-36.467-37.6-35.756a36.53 36.53 0 0 0-25.605 11.725 35.76 35.76 0 0 0-9.572 26.301c.712 14.585 10.297 29.098 24.622 33.352a2896 2896 0 0 1-.319-35.24l20.967.15c-.057-3.556-.845-17.66 1.838-19.648 2.27 3.827 1.753 14.99 1.75 19.738"/><path fill="#b98863" d="M263.004 168.538c-.057-3.556-.845-17.66 1.838-19.648 2.27 3.827 1.753 14.99 1.75 19.738 6.52-.374 15.194-.175 21.88-.22l2.039-.402c.113 4.19-.07 7.71-1.428 11.745-4.318 12.164-14.947 24.477-28.722 24.761l-.617-.417c-4.83-3.218-6.374-2.413-9.334.595-1.026 1.043-6.148-.55-8.054-1.062a2896 2896 0 0 1-.319-35.24z"/><path fill="#cfc3b8" d="M290.51 168.006c.114 4.19-.07 7.71-1.427 11.745-.744-3.36-.593-7.813-.61-11.343z"/><path fill="#e2bca2" d="M252.198 179.673c2.385-.142 3.628-.426 5.851.484 2.066 3.01 1.245 6.491 1.065 10.508-3.275.088-3.91.581-6.257-1.039-1.251-2.475-.749-6.974-.659-9.953"/><path fill="#38476e" d="M270.635 185.788c2.106-.143 3.536-.445 5.491.325 2.18 2.725 1.423 6.53 1.296 10.294-2.934.03-4.177.4-6.325-1.124-1.195-2.478-.619-6.56-.462-9.495"/><path fill="#b98863" d="M165.817 201.9q18.264 0 36.527.27c1.789 3.71 3.841 7.736 5.505 11.464.046 8.633.42 19.531.048 27.983-.324 17.646.756 36.276.165 53.563l-8.775-.18-.143-23.35-11.014-.025-.125 23.45c-6.76-.346-15.058.05-21.94.212.371-18.416-.022-38.036-.036-56.538a3537 3537 0 0 0-.212-36.85"/><path fill="#3a465b" d="M192.127 245.454c2.467-.142 4.098-.54 6.17.672 1.74 2.386 1.03 7.172.945 10.447-2.407.1-3.869.383-6.074-.561-2.07-3.006-1.231-6.538-1.041-10.558"/><path fill="#3a465b" d="M192.251 219.179c3.135-.089 4.328-.524 6.632 1.073 1.246 2.46.65 6.94.505 9.907-3.48.047-4.105.523-6.487-1.182-1.234-2.525-.744-6.803-.65-9.798"/><path fill="#3a465b" d="M175.573 211.633c2.805-.034 4.178-.365 6.338.972 1.295 2.426.77 6.602.662 9.572-2.315.078-4.199.435-6.15-.645-1.583-2.818-.92-6.273-.85-9.899"/><path fill="#3a465b" d="M175.78 235.683c2.306-.108 3.78-.422 5.822.588 1.846 3.097 1.12 6.394 1.016 10.385l-6.878-.07z"/><path fill="#e2bca2" d="M175.946 258.911c2.53-.06 3.178-.23 5.487.608 1.984 2.892 1.202 6.073 1.02 9.881-3.118.042-3.501.547-5.919-.905-1.23-2.33-.698-6.703-.588-9.584"/><path fill="#9d6746" d="M312.442 209.77q17.409-.151 34.817-.044c-.008 9.502-.193 19.663.158 29.11-.016 17.12-.156 39.325.543 56.179l-15.411.018q.03-11.145-.083-22.29l-11.067.1-.087 22.307-8.972-.026c.148-22.183-.309-45.84.25-67.752-.025-5.642.082-12.029-.148-17.602"/><path fill="#3a465b" d="M333.996 252.925c3.035.169 3.293-.307 5.52 1.293 1.259 2.557.762 6.294.651 9.326-3.089-.032-3.27.443-5.701-1.029-1.259-2.362-.635-6.671-.47-9.59"/><path fill="#3a465b" d="M333.95 234.317c3.123.165 3.284-.304 5.713 1.278 1.234 2.485.566 6.23.341 9.206-2.784-.024-3.5.444-5.518-.933-1.236-2.386-.671-6.634-.536-9.55"/><path fill="#3a465b" d="M319.405 220.26c2.408-.123 3.841-.502 5.768.828 1.396 2.344.734 5.878.557 8.832-2.79.008-3.473.44-5.736-.788-1.349-2.376-.738-5.93-.59-8.872"/><path fill="#e2bca2" d="M334.034 217.748c2.085-.069 3.476-.327 5.324.528 1.682 2.628.901 5.844.67 9.258-2.152.094-3.735.47-5.397-.71-1.39-2.34-.763-6.119-.597-9.076"/><path fill="#3a465b" d="M319.89 240.477c2.29-.137 2.882-.327 4.974.425 1.844 2.728 1.142 5.82 1 9.396-2.218.068-3.606.391-5.379-.832-1.368-2.308-.754-6.072-.596-8.989"/><path fill="#915c3c" d="M130.463 238.87q17.784.061 35.566-.121c.014 18.502.407 38.122.036 56.538 6.882-.163 15.18-.558 21.94-.211-7.394.868-25.547.434-33.396.313l.07-15.72-8.656.064.02 15.736c-5.504.055-9.896.046-15.409-.307-.32-18.582-.135-37.671-.17-56.292"/><path fill="#3a465b" d="M137.165 265.584c2.556-.123 3.294-.339 5.617.52 1.927 2.647 1.241 6.048 1.139 9.646-2.214.26-3.857.752-5.755-.23-1.11-1.53-1.089-1.674-1.06-3.57z"/><path fill="#3a465b" d="M137.195 247.637c2.245-.08 3.281-.29 5.354.432 1.943 2.559 1.169 5.737.984 9.266-2.23.162-3.855.604-5.612-.582-1.357-2.3-.824-6.207-.726-9.116"/><path fill="#e2bca2" d="M152.491 248.262c2.108-.088 3.736-.439 5.457.614 1.482 2.214.893 5.852.794 8.768-2.2.06-3.732.372-5.559-.74-1.404-2.127-.802-5.836-.692-8.642"/><path fill="#b98863" d="M347.417 238.835c10.568-.018 22.97.16 33.452-.336l-.308 56.45-11.192.105.012-17.492-8.172-.021-.047 17.453-13.202.02c-.7-16.853-.559-39.059-.543-56.179"/><path fill="#3a465b" d="M354.275 263.523c2.23-.098 3.153-.314 5.2.422 1.831 2.611 1.157 5.693 1.045 9.184-2.247.114-2.77.255-4.88-.356-2.066-2.62-1.42-5.63-1.365-9.25"/><path fill="#3a465b" d="M368.455 246.234c2.181-.105 2.684-.182 4.796.224 2.156 2.488 1.412 5.449 1.288 9.094-2.065.089-3.567.411-5.301-.587-1.512-2.183-.896-5.813-.783-8.73"/><path fill="#3a465b" d="M354.162 245.995c2.618.003 3.15-.404 5.242.782 1.395 2.368.75 5.887.582 8.853-2.403.048-3.363.336-5.241-.93-1.321-2.278-.722-5.853-.583-8.705"/><path fill="#915c3c" d="M292.128 227.397c6.764-.01 13.72-.111 20.462-.025-.559 21.913-.102 45.569-.25 67.752-7.733-.175-15.934-.063-23.706-.092.14-16.038.845-46.05-.384-61.627 1.08-2.182 2.478-4.015 3.878-6.008"/><path fill="#3a465b" d="M300.255 256.622c2.401.495 1.948.037 3.427 1.51 1.516 4.402 1.621 7.52-2.422 10.092-5.39-2.08-5.733-9.333-1.005-11.602"/><path fill="#e2bca2" d="M297.96 237.152c2.83-.01 3.343-.452 5.61.822 1.312 2.413.581 6.404.34 9.348-2.94.036-3.016.478-5.422-.844-1.302-2.307-.683-6.464-.528-9.326"/><path fill="#b98863" d="M288.25 233.405c1.229 15.577.524 45.59.384 61.627l-17.27.085c-8.78-.42-19.42-.128-28.333-.112-.278-6.13-.623-22.334.309-27.904 3.914 4.62 6.367 7.648 10.989 11.622 5.283-4.819 11.42-13.12 15.788-18.83 6.678-9.02 12.312-16.898 18.133-26.488"/><path fill="#e2bca2" d="M270.117 259.892c2.547.072 4.452-.236 6.344 1.277 1.362 2.273.586 6.541.495 9.57-3.073.046-3.348.517-5.847-.849-1.563-2.852-.685-6.464-.992-9.998"/><path fill="#915c3c" d="m207.897 241.617 17.286.105c3.025 4.259 6.842 9.346 9.652 13.647.287 1.999.452 5.366 1.684 6.712l-.204.571.656-.182.395-1.19.906-.08c.709.823 4.647 5.265 5.068 5.901-.932 5.57-.587 21.775-.31 27.904 8.915-.016 19.555-.309 28.334.112-9.56.838-35.47.363-45.448.25.21-6.063.16-12.519.208-18.617l-8.986-.003-.009 18.608c-3.307.09-5.758.012-9.067-.175.591-17.287-.489-35.917-.165-53.563"/><path fill="#3a465b" d="M234.835 255.369c.287 1.999.452 5.366 1.684 6.712l-.204.571.656-.182.395-1.19.906-.08-.224 2.09c-1.835 1.616-.793 1.174-3.245 1.357-4.337-2.306-4.992-7.074.032-9.278"/><path fill="#e2bca2" d="M217.127 252.101c2.253-.141 3.318-.387 5.42.283 2.05 2.624 1.285 5.95 1.157 9.69-2.225.113-3.27.332-5.354-.315-2.12-2.624-1.355-5.963-1.223-9.658"/><path fill="#cfc3b8" d="M169.97 365.86c27.44-.926 55.915.433 83.5-.038 13.843-.237 29.183-.372 42.956.404-.449 2.994-1.337 4.242-.835 7.35.45 2.778.863 3.958-.008 6.558-2.292 1.367-3.424.812-6.487.746-14.641-.011-118.04 1.24-123.205-1.214-1.56-.742-2.746-2.416-3.263-4.031-.627-1.966-.4-4.5.65-6.287 1.445-2.457 4.142-2.914 6.692-3.487"/><path fill="#38476e" d="M272.332 333.93q6.773.01 13.542-.262l.427.789c-4.693 7.395.525 9.665-1.119 14.535-2.239.463-21.236.14-25.086.168q-39.487.369-78.974.234c-4.615.006-13.722.963-17.162-1.906-5.401-4.673-2.092-12.965 4.964-13.241 10.644-.419 21.455-.209 32.115-.2q35.647.121 71.293-.116"/><path fill="#cfc3b8" d="M302.364 334.315c8.892.176 42.974-4.77 31.494 12.953-4.422 2.812-23.964 1.654-30.255 1.63 1.149-6.355 1.246-8.72-1.239-14.583"/><path fill="#38476e" d="M313.259 365.606c8.434-.11 32.42-1.884 21.011 14.002-4.874 2.146-14.976 1.453-20.616 1.405 2.385-7.104 2.264-8.847-.395-15.407"/><path fill="#75987f" d="M136.126 437.225a9.308 9.308 0 0 1 10.891 12.137 9.31 9.31 0 0 1-17.916-1.235 9.313 9.313 0 0 1 7.025-10.902"/><path fill="#75987f" d="M59.705 351.656c44.816-5.974 58.677 27.735 50.946 65.543-2.986 14.601-7.392 29.24-8.538 44.03-.872 16.075 8.93 28.787 26.064 24.64 18.723-4.531 32.535-17.081 51.816-21.455 48.107-10.913 52.288 37.437 39.181 71.909-2.945.299-8.258.69-10.922 1.368-7.216 1.025-87.968.688-94.329-.538-1.233-1.714-4.99-2.388-7.25-3.078-10.681-3.155-19.328-8.286-27.618-15.6-21.84-19.27-19.45-45.886-19.494-72.2l.014-64.42c.019-9.157.565-21.364.13-30.199"/><path fill="#cb7152" d="M441.206 366.92c.218 2.345.096 7.163 1.208 8.48.441 20.086-.054 40.472-.104 60.55-.074 29.606 4.983 59.55-17.828 82.98-11.871 12.196-28.24 19.134-45.353 19.366-30.788-.104-61.634-.014-92.44.161q-23.856.126-47.713-.024c-9.295-.051-21.633.117-30.724-.742 2.664-.679 7.977-1.07 10.922-1.368 24.34.027 49.483-.503 73.675-.183a53 53 0 0 1-2.881-19.703c.454-10.784 4.267-20.73 12.427-27.952 18.547-16.414 41.005-9.877 62.141-8.972 9.713-20.99 15.154-27.976 28.293-46.057-6.337-15.738-5.774-37.37 7.979-49.122 12.034-10.283 25.036-10.362 39.909-9.453zm-47.243 70.584c-12.32 14.27-18.048 24.838-25.898 42.047 29.252-2.858 33.125-15.147 25.898-42.047"/><path fill="#cb7152" d="M292.849 536.14a53 53 0 0 1-2.881-19.703c.454-10.784 4.267-20.73 12.427-27.952 18.547-16.414 41.005-9.877 62.141-8.972-9.376 20.515-11.872 35.893-16.992 56.941-16.924.223-37.973.615-54.695-.314"/><path fill="#cb7152" d="M392.829 433.456c-6.337-15.738-5.774-37.37 7.979-49.122 12.034-10.283 25.036-10.362 39.909-9.453-.147 8.243-.486 23.614.228 31.707-13.917 1.92-24.766 7.46-35.815 16.145-1.811 1.423-11.647 10.563-12.301 10.723"/><path fill="#c1b6ad" d="M441.206 366.92c.218 2.345.096 7.163 1.208 8.48.441 20.086-.054 40.472-.104 60.55-.074 29.606 4.983 59.55-17.828 82.98-11.871 12.196-28.24 19.134-45.353 19.366-30.788-.104-61.634-.014-92.44.161q-23.856.126-47.713-.024c-9.295-.051-21.633.117-30.724-.742 2.664-.679 7.977-1.07 10.922-1.368 24.34.027 49.483-.503 73.675-.183 16.722.929 37.771.537 54.695.314l4.19.02c28.046-1.09 47.86 4.051 70.288-18.088 20.734-20.469 18.77-43.233 18.656-69.39a3432 3432 0 0 1-.042-38.98l.31-3.428c-.715-8.093-.376-23.464-.23-31.707z"/><defs><linearGradient id="b" x1="325.092" x2="343.765" y1="583.944" y2="596.165" gradientUnits="userSpaceOnUse"><stop offset="0" stop-color="#60846a"/><stop offset="1" stop-color="#808775"/></linearGradient></defs><path fill="url(#b)" d="M340.74 561.98c.567-.139 9.099-8.067 10.67-9.301 9.584-7.533 18.994-12.338 31.066-14.004l-.268 2.974c-13.975 1.508-32.116 12.629-40.484 23.842-10.687 12.378-15.655 21.545-22.464 36.472-5.069 9.714-13.911 38.478-14.166 49.375l-3.634-.017c4.441-18.257 6.606-31.596 14.739-49.391 8.425-18.206 13.144-24.266 24.541-39.95" transform="translate(0 -214.434)scale(1.15287)"/><path fill="#cb7152" d="M59.58 197.921c.593-6.695.095-22.218.08-29.41l-.16-59.567c-.053-24.42-.312-43.187 18.793-62.132a63 63 0 0 1 29.2-16.306c12.19-3.074 30.482-2.32 43.511-2.292l45.172.15c11.087 36.788-11.04 61.46-48.221 60.633-17.893-.358-45.806-7.192-56.617 12.022-7.592 13.494-.078 33.15 1.613 47.774 2.791 24.14-7.063 46.055-33.372 49.128"/><path fill="#c1b6ad" fill-opacity=".957" d="M113.923 537.153c-13.825-1.169-26.644-8.01-36.814-17.391-9.827-9.064-16.594-23.499-19.226-36.567-.929-4.61-.686-16.735-.692-21.818l.036-37.243c.062-51.504 1.173-102.99.38-154.42q-.378-65.262.022-130.524c.014-6.313 0-12.834-.086-19.11-.38-27.607-3.231-52.936 18.295-74.335 15.807-15.714 30.726-19.26 52.07-19.346l181.662-.16 46.65-.06c26.685-.093 47.38-1.603 68.051 19.153 20.273 20.357 18.105 40.057 18.094 66.005l.04 54.348.009 209.716c-1.112-1.318-.99-6.136-1.208-8.48-.534-3.92-.218-18.352-.203-22.778l-.074-42.87-.105-160.481c-.01-7.813-.063-15.729-.037-23.533.088-26.292 2.354-49.824-18.018-70.266a63.97 63.97 0 0 0-33.407-17.639c-10.243-2-49.335-1.09-62.075-1.087l-131.111.097-45.172-.15c-13.029-.029-31.321-.782-43.512 2.292a63 63 0 0 0-29.199 16.306C59.188 65.757 59.447 84.524 59.5 108.944l.16 59.567c.015 7.192.513 22.715-.08 29.41-.67 8.873-.248 23.316-.244 32.55l.039 60.489-.013 40.189c-.001 4.778-.253 16.393.343 20.507.435 8.835-.111 21.042-.13 30.2l-.014 64.419c.045 26.314-2.347 52.93 19.494 72.2 8.29 7.314 16.937 12.445 27.618 15.6 2.26.69 6.017 1.364 7.25 3.078"/></g></svg>